<mxfile host="app.diagrams.net" modified="2024-05-14T02:42:39.304Z" agent="Mozilla/5.0 (Windows NT 10.0; Win64; x64) AppleWebKit/537.36 (KHTML, like Gecko) Chrome/124.0.0.0 Safari/537.36" etag="6j7C1g0I0hQyN9wetrhg" version="24.4.0" type="github">
  <diagram name="PÃ¡gina-1" id="gtDwH3Z3poPMo9gQIc8r">
    <mxGraphModel dx="1120" dy="1603" grid="1" gridSize="10" guides="1" tooltips="1" connect="1" arrows="1" fold="1" page="1" pageScale="1" pageWidth="827" pageHeight="1169" math="0" shadow="0">
      <root>
        <mxCell id="0" />
        <mxCell id="1" parent="0" />
        <mxCell id="aFNK49lHqaIIsz4tnDYW-3" value="" style="edgeStyle=orthogonalEdgeStyle;rounded=0;orthogonalLoop=1;jettySize=auto;html=1;" edge="1" parent="1" source="aFNK49lHqaIIsz4tnDYW-1" target="aFNK49lHqaIIsz4tnDYW-2">
          <mxGeometry relative="1" as="geometry" />
        </mxCell>
        <mxCell id="aFNK49lHqaIIsz4tnDYW-1" value="INICIO" style="rounded=1;whiteSpace=wrap;html=1;" vertex="1" parent="1">
          <mxGeometry x="366" y="-1120" width="96" height="40" as="geometry" />
        </mxCell>
        <mxCell id="aFNK49lHqaIIsz4tnDYW-5" value="" style="edgeStyle=orthogonalEdgeStyle;rounded=0;orthogonalLoop=1;jettySize=auto;html=1;" edge="1" parent="1" source="aFNK49lHqaIIsz4tnDYW-2" target="aFNK49lHqaIIsz4tnDYW-4">
          <mxGeometry relative="1" as="geometry" />
        </mxCell>
        <mxCell id="aFNK49lHqaIIsz4tnDYW-2" value="UI=1&lt;div&gt;i=1&lt;/div&gt;&lt;div&gt;resultado&lt;/div&gt;" style="whiteSpace=wrap;html=1;rounded=1;arcSize=0;" vertex="1" parent="1">
          <mxGeometry x="369" y="-1040" width="89" height="50" as="geometry" />
        </mxCell>
        <mxCell id="aFNK49lHqaIIsz4tnDYW-7" value="" style="edgeStyle=orthogonalEdgeStyle;rounded=0;orthogonalLoop=1;jettySize=auto;html=1;" edge="1" parent="1" source="aFNK49lHqaIIsz4tnDYW-4" target="aFNK49lHqaIIsz4tnDYW-6">
          <mxGeometry relative="1" as="geometry" />
        </mxCell>
        <mxCell id="aFNK49lHqaIIsz4tnDYW-4" value="&lt;div&gt;mostrar&lt;/div&gt;U0=1" style="shape=parallelogram;perimeter=parallelogramPerimeter;whiteSpace=wrap;html=1;fixedSize=1;rounded=1;arcSize=0;" vertex="1" parent="1">
          <mxGeometry x="361" y="-960" width="106" height="40" as="geometry" />
        </mxCell>
        <mxCell id="aFNK49lHqaIIsz4tnDYW-9" value="" style="edgeStyle=orthogonalEdgeStyle;rounded=0;orthogonalLoop=1;jettySize=auto;html=1;" edge="1" parent="1" source="aFNK49lHqaIIsz4tnDYW-6" target="aFNK49lHqaIIsz4tnDYW-8">
          <mxGeometry relative="1" as="geometry" />
        </mxCell>
        <mxCell id="aFNK49lHqaIIsz4tnDYW-11" value="" style="edgeStyle=orthogonalEdgeStyle;rounded=0;orthogonalLoop=1;jettySize=auto;html=1;" edge="1" parent="1" source="aFNK49lHqaIIsz4tnDYW-6" target="aFNK49lHqaIIsz4tnDYW-10">
          <mxGeometry relative="1" as="geometry" />
        </mxCell>
        <mxCell id="aFNK49lHqaIIsz4tnDYW-6" value="10&amp;gt;=i" style="rhombus;whiteSpace=wrap;html=1;rounded=1;arcSize=0;" vertex="1" parent="1">
          <mxGeometry x="374" y="-880" width="80" height="80" as="geometry" />
        </mxCell>
        <mxCell id="aFNK49lHqaIIsz4tnDYW-8" value="FIN" style="rounded=1;whiteSpace=wrap;html=1;arcSize=25;" vertex="1" parent="1">
          <mxGeometry x="500" y="-860" width="76" height="40" as="geometry" />
        </mxCell>
        <mxCell id="aFNK49lHqaIIsz4tnDYW-13" value="" style="edgeStyle=orthogonalEdgeStyle;rounded=0;orthogonalLoop=1;jettySize=auto;html=1;" edge="1" parent="1" source="aFNK49lHqaIIsz4tnDYW-10" target="aFNK49lHqaIIsz4tnDYW-12">
          <mxGeometry relative="1" as="geometry" />
        </mxCell>
        <mxCell id="aFNK49lHqaIIsz4tnDYW-10" value="resultado= UI//i+1)" style="whiteSpace=wrap;html=1;rounded=1;arcSize=0;" vertex="1" parent="1">
          <mxGeometry x="351" y="-740" width="126" height="40" as="geometry" />
        </mxCell>
        <mxCell id="aFNK49lHqaIIsz4tnDYW-15" value="" style="edgeStyle=orthogonalEdgeStyle;rounded=0;orthogonalLoop=1;jettySize=auto;html=1;" edge="1" parent="1" source="aFNK49lHqaIIsz4tnDYW-12" target="aFNK49lHqaIIsz4tnDYW-14">
          <mxGeometry relative="1" as="geometry" />
        </mxCell>
        <mxCell id="aFNK49lHqaIIsz4tnDYW-12" value="U, i,&amp;nbsp; =, UI" style="shape=parallelogram;perimeter=parallelogramPerimeter;whiteSpace=wrap;html=1;fixedSize=1;rounded=1;arcSize=0;" vertex="1" parent="1">
          <mxGeometry x="354" y="-670" width="120" height="60" as="geometry" />
        </mxCell>
        <mxCell id="aFNK49lHqaIIsz4tnDYW-17" value="" style="edgeStyle=orthogonalEdgeStyle;rounded=0;orthogonalLoop=1;jettySize=auto;html=1;" edge="1" parent="1" source="aFNK49lHqaIIsz4tnDYW-14" target="aFNK49lHqaIIsz4tnDYW-16">
          <mxGeometry relative="1" as="geometry" />
        </mxCell>
        <mxCell id="aFNK49lHqaIIsz4tnDYW-14" value="UI = resultado" style="whiteSpace=wrap;html=1;rounded=1;arcSize=0;" vertex="1" parent="1">
          <mxGeometry x="354" y="-560" width="120" height="60" as="geometry" />
        </mxCell>
        <mxCell id="aFNK49lHqaIIsz4tnDYW-19" value="" style="edgeStyle=orthogonalEdgeStyle;rounded=0;orthogonalLoop=1;jettySize=auto;html=1;entryX=0.088;entryY=0.425;entryDx=0;entryDy=0;entryPerimeter=0;" edge="1" parent="1" source="aFNK49lHqaIIsz4tnDYW-16" target="aFNK49lHqaIIsz4tnDYW-6">
          <mxGeometry relative="1" as="geometry">
            <mxPoint x="237" y="-650" as="targetPoint" />
            <Array as="points">
              <mxPoint x="240" y="-840" />
              <mxPoint x="381" y="-840" />
            </Array>
          </mxGeometry>
        </mxCell>
        <mxCell id="aFNK49lHqaIIsz4tnDYW-16" value="++i" style="whiteSpace=wrap;html=1;rounded=1;arcSize=0;" vertex="1" parent="1">
          <mxGeometry x="200" y="-550" width="74" height="40" as="geometry" />
        </mxCell>
        <mxCell id="aFNK49lHqaIIsz4tnDYW-20" value="NO" style="text;html=1;align=center;verticalAlign=middle;resizable=0;points=[];autosize=1;strokeColor=none;fillColor=none;" vertex="1" parent="1">
          <mxGeometry x="440" y="-872" width="40" height="30" as="geometry" />
        </mxCell>
        <mxCell id="aFNK49lHqaIIsz4tnDYW-21" value="SI" style="text;html=1;align=center;verticalAlign=middle;resizable=0;points=[];autosize=1;strokeColor=none;fillColor=none;" vertex="1" parent="1">
          <mxGeometry x="415" y="-792" width="30" height="30" as="geometry" />
        </mxCell>
      </root>
    </mxGraphModel>
  </diagram>
</mxfile>
